<svg width="38" height="50" fill="none" xmlns="http://www.w3.org/2000/svg"><path fill-rule="evenodd" clip-rule="evenodd" d="M0 2.153C0 .913.73 0 1.734 0h24.408c.337 0 .618.177.838.405v.001l9.848 10.154c.122.127.236.281.307.52.063.213.084.47.084.79v36.764c0 .225-.11.418-.193.536a1.915 1.915 0 01-.37.389c-.287.23-.701.441-1.171.441H1.734c-.47 0-.885-.21-1.172-.441a1.916 1.916 0 01-.37-.39C.11 49.053 0 48.86 0 48.636V2.153zM1.734.98c-.342 0-.791.314-.791 1.173v46.422a.962.962 0 00.196.208c.175.14.392.237.595.237h33.75c.204 0 .421-.096.596-.237a.961.961 0 00.196-.208V11.87c0-.293-.021-.43-.042-.502a.233.233 0 00-.073-.114L26.315 1.1l-.001-.002a.53.53 0 00-.13-.105C26.157.98 26.145.98 26.142.98H1.734z" fill="#FF2626"/><path fill-rule="evenodd" clip-rule="evenodd" d="M26.865 10.82V.49l9.932 10.33h-9.932zm7.656-.981l-6.713-6.982V9.84h6.713z" fill="#FF2626"/><path d="M11.414 29.64a1.58 1.58 0 01-.842-.263c-.841-.7-1.01-1.4-.926-1.926.169-1.4 1.852-2.889 5.05-4.464 1.263-2.889 2.441-6.478 3.199-9.454-.842-1.926-1.684-4.377-1.095-5.777.169-.525.505-.876.926-1.05.169-.088.674-.176.842-.176.42 0 .758.525 1.094.876.253.35.842 1.05-.336 5.952 1.094 2.451 2.777 4.902 4.292 6.653 1.094-.175 2.02-.35 2.862-.35 1.346 0 2.104.35 2.44.962.253.526.169 1.138-.336 1.926-.505.7-1.094 1.05-1.852 1.05-1.01 0-2.188-.7-3.535-2.013-2.357.526-5.134 1.488-7.406 2.451-.674 1.576-1.347 2.801-2.02 3.764-.842 1.313-1.6 1.839-2.357 1.839zm2.272-4.465c-1.767 1.05-2.525 1.926-2.609 2.364 0 .087 0 .262.337.612.168 0 .926-.35 2.272-2.976zm11.447-3.851c.673.525.842.787 1.262.787.169 0 .758 0 1.01-.35.085-.175.169-.262.169-.35-.084-.087-.253-.175-1.01-.175-.337-.087-.842 0-1.431.088zm-6.313-5.778c-.589 2.189-1.43 4.465-2.272 6.653a44 44 0 015.47-1.75 53.394 53.394 0 01-3.198-4.903zm-.505-7.44c-.084 0-1.094 1.576.085 2.801.841-1.838 0-2.801-.084-2.801zM35.4 49.51H1.733c-.673 0-1.262-.613-1.262-1.313V34.629h36.191v13.568c0 .7-.589 1.313-1.262 1.313z" fill="#FF2626"/><path d="M9.646 46.884H8.215v-8.841h2.44c.337 0 .758.087 1.095.175a2 2 0 01.926.525c.252.263.505.525.673.876.168.35.252.7.252 1.138 0 .437-.084.875-.252 1.225-.168.35-.337.7-.59.875-.252.175-.504.526-.925.613-.42.087-.758.175-1.178.175h-1.01v3.239zm0-7.703v3.501h1.262c.168 0 .337 0 .505-.087.168-.088.337-.175.421-.263.168-.175.252-.35.337-.525.084-.175.084-.525.084-.876 0-.174 0-.35-.084-.525 0-.175-.085-.35-.253-.525a.872.872 0 00-.505-.438c-.252-.087-.505-.175-.841-.175l-.926-.087zM22.1 42.245c0 .7-.083 1.313-.252 1.838-.168.525-.336.963-.589 1.313-.252.35-.505.613-.757.788-.253.175-.59.35-.842.437-.252.088-.505.175-.757.175h-3.704v-8.753h2.525c.674 0 1.347.087 1.852.35.505.263 1.01.525 1.347.963.336.438.589.875.841 1.313.253.525.337 1.05.337 1.576zm-4.04 3.589c.927 0 1.6-.35 2.02-.963.422-.613.59-1.488.59-2.714 0-.35 0-.7-.084-1.05-.084-.35-.253-.7-.505-.963a3.023 3.023 0 00-1.01-.7c-.42-.175-.926-.263-1.6-.263h-.84v6.653h1.43zm7.494-6.654v2.802h3.535v.963h-3.535v3.939h-1.431v-8.841h5.303v1.05h-3.872v.088z" fill="#fff"/></svg>